<?xml version="1.0" encoding="UTF-8" standalone="no"?>
<!-- Created with Inkscape (http://www.inkscape.org/) -->

<svg
   width="64.652222mm"
   height="85.920128mm"
   viewBox="0 0 64.652222 85.920128"
   version="1.1"
   id="svg207"
   inkscape:version="1.2.2 (732a01da63, 2022-12-09)"
   sodipodi:docname="Logo_ModelOps_Sem_Texto.svg"
   xmlns:inkscape="http://www.inkscape.org/namespaces/inkscape"
   xmlns:sodipodi="http://sodipodi.sourceforge.net/DTD/sodipodi-0.dtd"
   xmlns="http://www.w3.org/2000/svg"
   xmlns:svg="http://www.w3.org/2000/svg">
  <sodipodi:namedview
     id="namedview209"
     pagecolor="#ffffff"
     bordercolor="#000000"
     borderopacity="0.25"
     inkscape:showpageshadow="2"
     inkscape:pageopacity="0.0"
     inkscape:pagecheckerboard="0"
     inkscape:deskcolor="#d1d1d1"
     inkscape:document-units="mm"
     showgrid="false"
     inkscape:zoom="1.0444209"
     inkscape:cx="-47.394684"
     inkscape:cy="41.17114"
     inkscape:window-width="1920"
     inkscape:window-height="1009"
     inkscape:window-x="-8"
     inkscape:window-y="-8"
     inkscape:window-maximized="1"
     inkscape:current-layer="layer1" />
  <defs
     id="defs204" />
  <g
     inkscape:label="Camada 1"
     inkscape:groupmode="layer"
     id="layer1"
     transform="translate(-66.196198,-7.1967507)">
    <path
       style="fill:#000000;stroke-width:0.264583"
       d="m 67.033405,92.877056 c -0.76773,-0.44728 -1.01631,-1.16468 -0.70901,-2.04619 0.30462,-0.87386 1.02276,-1.24837 2.88858,-1.5064 12.87373,-1.78035 22.31346,-7.38517 26.29118,-15.61033 1.61163,-3.33254 2.02177,-5.02247 2.00981,-8.28114 -0.0103,-2.80125 -0.37255,-4.68897 -1.33036,-6.9324 -2.41026,-5.645433 -6.46707,-9.680176 -11.3442,-11.282495 -1.24574,-0.409271 -2.4138,-0.850686 -2.5957,-0.980922 -0.49186,-0.352155 -0.40071,-1.160359 0.19843,-1.7595 1.22088,-1.22088 5.2773,-0.203737 8.56566,2.147832 7.59398,5.430584 11.705615,16.358835 9.290475,24.692985 -3.134535,10.81661 -13.307395,18.34718 -28.601015,21.17222 -4.09425,0.75629 -4.037,0.75155 -4.66385,0.38634 z m 58.138935,-0.41226 c -8.5377,-1.76166 -14.80631,-4.77955 -19.38153,-9.33081 -3.65154,-3.63241 -4.05823,-4.62277 -2.58645,-6.29844 l 0.65011,-0.74016 2.93046,3.0968 c 3.06553,3.23952 5.56576,5.13773 8.64353,6.56229 3.32563,1.53929 8.04495,2.91905 12.74903,3.72739 1.07075,0.18399 2.11254,0.50026 2.3151,0.70282 0.49601,0.49602 0.46727,2.0458 -0.0475,2.56056 -0.55115,0.55115 -1.48262,0.50161 -5.27276,-0.28045 z M 85.087975,73.290786 c -3.93011,-1.01065 -8.28091,-3.64172 -10.97251,-6.63542 -1.91506,-2.13002 -1.89116,-3.11455 0.0758,-3.12364 1.10732,-0.005 1.70654,0.31421 3.3513,1.78588 1.85918,1.66352 4.93335,3.39975 7.41307,4.18675 1.66451,0.52827 2.69838,0.67632 4.83979,0.69305 2.40483,0.0188 2.75499,0.0808 2.9958,0.53079 0.22944,0.4287 0.0658,0.71641 -1.03167,1.81388 -1.29898,1.29897 -1.31134,1.30426 -2.9958,1.28168 -0.9303,-0.0125 -2.58442,-0.2523 -3.67582,-0.53297 z m 20.240625,0.3351 c -0.74643,-0.18225 -0.79044,-0.26427 -0.73819,-1.37569 0.0807,-1.71722 0.674,-2.10693 3.2149,-2.11184 2.34249,-0.004 4.6385,-0.49137 6.77631,-1.4368 1.70413,-0.75366 4.61167,-2.9644 5.45341,-4.14652 0.53651,-0.75347 0.63182,-0.78257 2.31925,-0.70812 1.59611,0.0704 1.75973,0.13016 1.75973,0.64245 0,0.31064 -0.56176,1.2882 -1.24836,2.17235 -2.31313,2.97864 -5.99301,5.35809 -9.86414,6.37825 -2.25298,0.59373 -6.3573,0.90715 -7.67291,0.58592 z m -16.209575,-7.19746 c -0.93043,-0.37379 -1.12064,-1.30934 -1.12064,-5.512 0,-3.835166 -0.0125,-3.919465 -0.75594,-5.091728 -0.41577,-0.655601 -1.1904,-1.550117 -1.72141,-1.987817 -1.23625,-1.019022 -4.014,-2.000467 -5.79339,-2.046944 -1.33139,-0.03477 -1.38346,-0.0099 -1.30886,0.625242 0.23423,1.994181 0.23924,1.979364 -0.70034,2.069322 -0.75694,0.07247 -1.05356,-0.08863 -2.01984,-1.097102 -3.04139,-3.174172 -2.87972,-8.467948 0.36997,-12.11401 5.76406,-6.467134 16.64632,-3.958762 23.65825,5.453248 2.655985,3.565094 3.335825,5.727857 2.528475,8.043818 -0.39045,1.12004 -1.00975,0.984549 -1.69534,-0.370901 -2.277165,-4.502028 -4.388155,-7.229655 -7.327205,-9.467509 -3.4728,-2.644267 -7.38616,-4.133194 -9.9547,-3.787489 -3.52069,0.473858 -6.53707,3.358126 -6.34038,6.062697 l 0.0805,1.106884 2.51355,0.174279 c 5.48591,0.380367 9.19571,2.554584 11.26755,6.603608 0.70935,1.386293 0.72945,1.547424 0.75499,6.054402 0.0144,2.54662 -0.0696,4.83857 -0.18663,5.09323 -0.23178,0.50416 -1.25066,0.5897 -2.24861,0.18877 z m 16.580765,-0.0565 c -0.0141,-0.0364 -0.0633,-1.37583 -0.10919,-2.97656 -0.0459,-1.60073 -0.22067,-3.505729 -0.38831,-4.233334 -0.16764,-0.727604 -0.36776,-1.634164 -0.44473,-2.014577 -0.20443,-1.010518 1.05402,-3.4706 2.52874,-4.94329 2.23315,-2.230072 4.92639,-3.228591 8.70829,-3.228591 3.26558,0 3.87548,-0.324745 3.69059,-1.965101 -0.19005,-1.686089 -0.95448,-3.017546 -2.3789,-4.143489 -3.42117,-2.704274 -7.7313,-2.336173 -12.19013,1.041086 -0.98997,0.749834 -1.95148,1.363337 -2.13669,1.363337 -0.58648,0 -1.55346,-1.26596 -1.55346,-2.033765 0,-1.459614 3.91118,-4.266264 7.31427,-5.248696 2.14221,-0.618432 5.78846,-0.432961 7.96541,0.405167 2.19797,0.846225 4.82914,3.471797 5.69879,5.686669 0.91179,2.322192 0.8833,5.072488 -0.0727,7.019483 -0.95559,1.946138 -2.15333,3.227335 -2.91579,3.118954 -0.50689,-0.07205 -0.58516,-0.228897 -0.53573,-1.073545 0.0504,-0.860898 -0.0294,-1.011068 -0.61518,-1.158094 -0.86912,-0.218133 -4.46316,0.503867 -6.17589,1.240666 -1.48201,0.63754 -3.07815,2.226273 -3.35837,3.342767 -0.10072,0.401285 -0.0442,1.690388 0.12557,2.864673 0.5569,3.8517 0.35566,6.16793 -0.5908,6.7999 -0.26321,0.17575 -2.50423,0.29484 -2.56577,0.13634 z m -21.537865,-0.50339 c -1.55115,-0.84675 -1.73167,-1.03054 -1.47793,-1.50467 0.34662,-0.64767 1.9776,-1.48407 2.50172,-1.28295 0.49829,0.19121 0.59433,1.76463 0.15753,2.5808 -0.31272,0.58432 -0.44678,0.60779 -1.18132,0.20682 z m 27.560765,-0.13602 c -0.3162,-0.3162 -0.18554,-2.13247 0.17493,-2.43164 0.38719,-0.32133 1.80456,-0.0251 2.45245,0.51265 0.60948,0.50582 0.42719,1.25911 -0.40938,1.69171 -0.81143,0.41961 -1.91281,0.53247 -2.218,0.22728 z m -34.597115,-4.18582 c -4.3921,-1.095817 -8.19923,-5.047065 -9.60251,-9.966011 -0.55105,-1.931609 -0.55491,-5.867866 -0.008,-7.99088 1.19794,-4.648809 4.46217,-8.380789 9.40329,-10.750736 5.22999,-2.508498 10.95146,-2.597949 15.77623,-0.246644 1.90914,0.930404 2.07799,1.426959 0.83959,2.469004 -0.98162,0.825974 -1.2206,0.834202 -3.41928,0.117732 -2.12639,-0.692915 -7.06171,-0.830604 -9.12813,-0.254664 -3.29635,0.918739 -6.92124,3.499083 -8.60783,6.127395 -2.92662,4.560751 -2.22316,11.37582 1.53147,14.836713 3.31965,3.059948 7.13424,3.074593 8.40888,0.03228 0.44391,-1.059518 0.74259,-1.074449 1.73054,-0.0865 0.86929,0.869286 1.01031,1.972548 0.40166,3.142345 -1.17171,2.252006 -4.25928,3.335116 -7.32607,2.569956 z m 38.127695,-0.38971 c -2.74266,-0.946664 -3.95263,-3.187515 -2.62943,-4.869689 0.70346,-0.894305 1.63647,-0.90402 2.2137,-0.02305 2.49925,3.814345 9.11351,0.730631 10.85763,-5.062064 2.22913,-7.403592 -2.43879,-14.701798 -10.50259,-16.420598 -2.21963,-0.473115 -5.67133,-0.345273 -7.68906,0.284776 -2.01754,0.629992 -4.7359,2.174423 -6.56676,3.73088 -0.93147,0.791863 -1.944085,1.441402 -2.250255,1.443418 -0.68039,0.0045 -1.95687,-1.128863 -1.95687,-1.737437 0,-0.668787 3.12737,-3.539866 5.189835,-4.764521 2.47923,-1.472129 4.49472,-2.183085 7.44388,-2.6258 5.21651,-0.783082 10.37,0.661181 14.41441,4.039635 4.65864,3.89154 6.93504,9.675181 5.90929,15.013658 -1.01172,5.265452 -4.59805,9.597446 -9.09542,10.986542 -2.09979,0.64856 -3.4685,0.64965 -5.33836,0.004 z M 106.8777,47.515729 c -0.27345,-0.712621 0.51256,-1.767745 1.99127,-2.673038 2.18865,-1.33993 4.56699,-1.374537 5.7354,-0.08346 0.5894,0.651285 0.28682,1.34239 -0.70423,1.608466 -6.01612,1.615207 -6.79434,1.742432 -7.02244,1.14803 z m 21.01287,-13.026073 c -1.36906,-1.389894 -1.53718,-1.692612 -1.94564,-3.503259 -0.54014,-2.394378 -1.84912,-5.576218 -2.94889,-7.168057 -1.05854,-1.532178 -2.96483,-3.682331 -3.2647,-3.682331 -0.13016,0 -0.86417,0.645208 -1.63116,1.433793 -1.45047,1.491335 -2.65176,1.981068 -4.0182,1.638112 -2.13019,-0.534643 -3.64356,-3.818181 -2.39545,-5.19734 0.94875,-1.048361 2.5056,-0.266541 2.5056,1.258266 0,0.489397 0.14504,0.602586 0.77211,0.602586 1.67062,0 1.89217,-0.426225 1.2906,-2.482845 -0.42707,-1.460008 -2.77739,-3.752705 -4.98093,-4.858801 -1.80155,-0.904319 -5.34314,-1.918771 -6.69868,-1.918771 -0.77789,0 -0.74404,0.0525 1.17271,1.818669 1.13881,1.04934 2.30019,2.418477 2.74546,3.236598 0.72842,1.338342 0.76957,1.579803 0.73316,4.302043 -0.0434,3.24231 0.17338,3.916011 1.71405,5.327454 1.45515,1.333101 0.79875,2.378668 -1.44165,2.296385 -1.18007,-0.04334 -2.08047,-0.699585 -2.91599,-2.125295 -0.62955,-1.074248 -0.72438,-1.56292 -0.85269,-4.394237 -0.16501,-3.640989 -0.46106,-4.472368 -2.19511,-6.164408 -2.28061,-2.225352 -5.651735,-3.768786 -9.054495,-4.145505 -5.51306,-0.610349 -13.4692,3.396377 -14.06771,7.084529 -0.33903,2.089197 2.20219,2.936113 2.59601,0.865171 0.052,-0.273656 0.34379,-0.662702 0.64834,-0.86455 0.48854,-0.323794 0.63647,-0.301897 1.25677,0.186029 1.71769,1.351134 0.17372,4.655381 -2.41747,5.173618 -1.13522,0.227044 -2.98623,-0.683171 -4.02961,-1.981526 -0.48176,-0.599488 -1.01043,-1.089975 -1.17483,-1.089975 -0.33881,0 -1.76677,1.461151 -2.98794,3.057401 -1.35909,1.776524 -2.71579,4.772372 -3.38486,7.474376 -0.60763,2.453881 -0.68508,2.599211 -2.02897,3.807437 -1.86907,1.680379 -2.19774,1.591114 -2.16617,-0.588312 0.0511,-3.525962 1.90213,-8.854634 4.28214,-12.327134 1.30968,-1.91086 2.78998,-3.452879 4.69647,-4.892289 0.79817,-0.602628 1.8748,-1.672712 2.3925,-2.377966 2.66815,-3.634743 7.54333,-6.257703 12.88644,-6.933206 1.95719,-0.247436 2.76767,-0.220128 5.15937,0.173842 2.66669,0.439264 2.9489,0.44091 4.689535,0.02733 2.17739,-0.517353 5.71085,-0.406535 8.20208,0.257242 3.77728,1.006443 7.7323,3.736776 9.30824,6.425917 0.37944,0.647448 1.34782,1.649084 2.17069,2.245222 4.47308,3.240575 7.68852,7.985234 9.01841,13.307431 0.61542,2.462917 0.735,6.217709 0.19801,6.217709 -0.18645,0 -1.01336,-0.68461 -1.83755,-1.521353 z m -33.531045,-3.993928 -1.06947,-1.017368 0.003,-3.14982 c 0.005,-4.937496 0.94378,-7.433802 3.78523,-10.064488 1.28632,-1.190898 1.70751,-1.434312 2.36722,-1.368037 1.492925,0.149979 1.470125,0.734008 -0.10962,2.807473 -2.25257,2.956589 -2.48231,3.830704 -2.43002,9.245542 l 0.0441,4.564063 h -0.76054 c -0.52038,0 -1.09825,-0.32126 -1.83001,-1.017365 z m -20.78492,0.217159 c -0.22847,-0.369673 0.10129,-1.840852 0.5828,-2.600053 l 0.39458,-0.622133 0.77007,0.73778 c 0.42355,0.405778 0.77008,0.892607 0.77008,1.081837 0,0.18923 -0.47388,0.643204 -1.05307,1.008832 -1.19456,0.754092 -1.23503,0.764969 -1.46446,0.393737 z m 26.878175,-0.102984 c -0.20179,-0.243131 -0.32617,-1.747737 -0.35544,-4.299479 -0.0512,-4.466326 0.23663,-5.567326 1.81889,-6.95656 1.59757,-1.402686 2.19626,-0.496226 1.71613,2.598317 -0.38492,2.48085 -0.36339,3.604553 0.10338,5.396611 0.21534,0.82672 0.33302,1.655405 0.26154,1.841526 -0.1163,0.302782 -2.66992,1.793608 -3.07225,1.793608 -0.089,0 -0.30153,-0.168309 -0.47225,-0.374023 z m 21.20657,-0.302437 c -0.32342,-0.226534 -0.58805,-0.565269 -0.58805,-0.752745 0,-0.399473 0.84073,-1.216628 1.25173,-1.216628 0.2853,0 0.86494,1.35627 0.86494,2.023856 0,0.480983 -0.80512,0.452287 -1.52862,-0.05448 z M 77.566985,27.005331 c -0.67007,-1.446271 -0.60718,-2.140096 0.22286,-2.458609 0.21422,-0.0822 1.46768,0.271206 2.78547,0.785352 2.08017,0.811596 2.39599,1.017365 2.39599,1.561105 0,0.701281 -0.86578,1.048174 -3.36897,1.349852 l -1.38461,0.16687 z m 38.212645,0.9871 c -0.71702,-0.24452 -0.92604,-0.460653 -0.92604,-0.957588 0,-0.522235 0.34502,-0.829525 1.85209,-1.649543 2.26891,-1.234556 2.86972,-1.278575 3.29921,-0.241712 0.42076,1.015796 0.19795,1.583205 -0.96866,2.466901 -1.0371,0.785585 -1.80786,0.875982 -3.2566,0.381942 z M 85.670055,27.226845 c -0.50631,-0.50631 -0.37276,-1.18617 0.4166,-2.120689 0.40375,-0.478007 0.90524,-1.090316 1.11443,-1.360686 0.25141,-0.32494 0.43551,-1.501439 0.54309,-3.4706 0.13931,-2.549808 0.26093,-3.146097 0.84409,-4.138629 1.45283,-2.472695 5.09833,-3.91754 6.28295,-2.490163 0.23035,0.277561 -0.0785,0.722127 -1.41278,2.033514 -1.91013,1.877361 -2.28117,2.760546 -2.28357,5.435584 -0.002,2.675938 -0.44878,4.204163 -1.57323,5.386208 -0.89459,0.940406 -1.12105,1.042961 -2.30311,1.042961 -0.72103,0 -1.45385,-0.142875 -1.62847,-0.3175 z"
       id="path193" />
  </g>
</svg>
